<?xml version="1.0" encoding="utf-8"?>
<!-- Generator: Adobe Illustrator 29.6.1, SVG Export Plug-In . SVG Version: 9.03 Build 0)  -->
<svg version="1.0" id="Calque_1" xmlns="http://www.w3.org/2000/svg" xmlns:xlink="http://www.w3.org/1999/xlink" x="0px" y="0px"
	 viewBox="0 0 640 163.4" style="enable-background:new 0 0 640 163.4;" xml:space="preserve">
<style type="text/css">
	.st0{fill:none;}
	.st1{fill:#113F67;}
	.st2{fill:#34699A;}
</style>
<g>
	<path class="st0" d="M94.2,69.2c-1.5,4.7-1.4,8.5-1.4,11.6c0.1,6.8,1.8,11.8,2.7,14.5c1.4,4.2,3.2,7.8,5,10.7
		c1.2-2.4,2.7-5.9,4.2-10.3c1.6-5,2.8-8.6,3-13.6c0.1-2.8-0.1-5.3-0.5-7.3c-1,0.5-2.5,1-4.5,1c-3,0.1-5.2-0.9-6.2-1.5
		c1.6,0.2,3.9,0.3,6.5-0.4c1.5-0.3,2.7-0.8,3.7-1.3c-0.4-1.6-0.7-2.6-0.9-3.1c-1.8-5-4.4-8.5-6.2-10.5C98,61.1,95.7,64.5,94.2,69.2z
		 M102.2,66.9c0,1.3-1,2.3-2.3,2.3s-2.3-1-2.3-2.3c0-1.3,1-2.3,2.3-2.3S102.2,65.6,102.2,66.9z"/>
	<path class="st1" d="M140.7,32.3c-7.7,0-13.8,1.2-18,2.4c-3.5,1-7.2,2-11.4,4.5c-5.7,3.3-9.4,7.4-11.5,10.2
		c-2.1-2.6-5.5-6.2-10.6-9.1c-2.2-1.3-4.8-2.5-10-4.1c-5-1.6-12.1-3.4-21.1-4.6l0.4,92.9c1-0.3,2.3-0.8,3.7-1.6
		c1.7-1.1,2.8-2.3,3.5-3.1c-0.2-26.7-0.4-53.4-0.6-80.1c3.2,0.4,7.2,1.3,11.5,3c8.3,3.3,14,8.2,17.3,11.6c-2,3.8-4.4,9.2-5.8,16.1
		c-1.1,5.2-1.3,9.9-1.1,13.5c0.2,6,1.8,10.4,2.8,13.3c1.1,3.4,3.1,8.1,6.4,13.2c-0.9,1.7-1.9,3.4-2.8,5.1c0.1,2.5,0.1,5.1,0.2,7.6
		c1-1.2,2.1-2.4,3.3-3.6c1.2-1.3,2.5-2.5,3.7-3.7c1.1,0.9,2.3,2,3.6,3.2c1.5,1.5,2.7,2.9,3.8,4.3l-0.1-8.2c-1.2-1.6-2.4-3.2-3.6-4.8
		c2-3.1,4.2-7.3,6-12.7c1.8-5.4,2.5-10.3,2.7-14c0.2-4,0-10-2.1-16.9c-1.6-5.2-3.9-9.3-5.8-12.1c1.5-2.4,5.1-7.7,12.1-11.4
		c7.2-3.8,13.9-3.8,16.7-3.6c-0.3,26.3-0.7,52.6-1,78.9c0.5,0.9,1.5,2.4,3.2,3.7c2,1.6,4.1,2.1,5.2,2.2
		C141,93.7,140.8,63,140.7,32.3z M95.5,95.3c-0.9-2.7-2.6-7.7-2.7-14.5c-0.1-3.1-0.1-6.9,1.4-11.6c1.5-4.7,3.8-8.1,5.5-10.1
		c1.8,2,4.4,5.5,6.2,10.5c0.1,0.4,0.5,1.5,0.9,3.1c0.2-0.1,0.4-0.2,0.6-0.3c0.1,0.7,0.3,1.4,0.4,2.2c-0.1,0.1-0.3,0.2-0.5,0.2
		c0.3,2,0.6,4.5,0.5,7.3c-0.2,5-1.4,8.7-3,13.6c-1.4,4.4-3,7.9-4.2,10.3"/>
	<path class="st1" d="M97.6,66.9c0,1.3,1,2.3,2.3,2.3s2.3-1,2.3-2.3c0-1.3-1-2.3-2.3-2.3S97.6,65.6,97.6,66.9z"/>
	<path class="st1" d="M96.5,74.4c1,0.5,3.2,1.6,6.2,1.5c1.9-0.1,3.5-0.6,4.5-1c-0.1-0.8-0.3-1.5-0.4-2.1c-1,0.5-2.3,1-3.7,1.3
		C100.3,74.6,98,74.6,96.5,74.4z"/>
	<path class="st1" d="M107.7,74.6c-0.1-0.7-0.3-1.4-0.4-2.2c-0.2,0.1-0.4,0.2-0.6,0.3c0.1,0.6,0.3,1.3,0.4,2.1
		C107.3,74.7,107.5,74.7,107.7,74.6z"/>
</g>
<path class="st2" d="M215.8,101.2l7.2,3.8c-2.4,4.6-5.1,8.4-8.2,11.2c-3.1,2.9-6.6,5-10.5,6.5c-3.9,1.5-8.3,2.2-13.2,2.2
	c-10.8,0-19.3-3.6-25.4-10.7c-6.1-7.1-9.2-15.1-9.2-24.1c0-8.4,2.6-15.9,7.8-22.5c6.6-8.4,15.4-12.6,26.4-12.6
	c11.3,0,20.4,4.3,27.2,12.9c4.8,6.1,7.3,13.6,7.3,22.7h-59.8c0.2,7.7,2.6,14.1,7.4,19c4.8,4.9,10.7,7.4,17.7,7.4
	c3.4,0,6.7-0.6,9.9-1.8c3.2-1.2,5.9-2.7,8.2-4.7C210.8,108.7,213.2,105.5,215.8,101.2z M215.8,83.3c-1.1-4.6-2.8-8.2-5-10.9
	c-2.2-2.7-5.1-4.9-8.7-6.6c-3.6-1.7-7.4-2.5-11.3-2.5c-6.5,0-12.1,2.1-16.8,6.3c-3.4,3.1-6,7.6-7.8,13.7H215.8z"/>
<path class="st2" d="M237.9,56.8h8.7v9.7c2.6-3.8,5.4-6.7,8.2-8.6c2.9-1.9,5.9-2.8,9-2.8c2.4,0,4.9,0.8,7.6,2.3l-4.5,7.2
	c-1.8-0.8-3.3-1.2-4.5-1.2c-2.9,0-5.6,1.2-8.2,3.5c-2.6,2.3-4.7,6-6,10.9c-1.1,3.8-1.6,11.4-1.6,23v22.5h-8.7V56.8z"/>
<path class="st2" d="M343.3,70.6l-6.8,4.2c-5.9-7.8-13.9-11.7-24-11.7c-8.1,0-14.8,2.6-20.2,7.8c-5.4,5.2-8,11.5-8,19
	c0,4.8,1.2,9.4,3.7,13.7c2.5,4.3,5.8,7.6,10.1,9.9c4.3,2.4,9.1,3.5,14.4,3.5c9.8,0,17.7-3.9,23.9-11.7l6.8,4.5
	c-3.2,4.8-7.4,8.5-12.8,11.1c-5.4,2.6-11.5,4-18.3,4c-10.5,0-19.2-3.3-26.2-10c-6.9-6.7-10.4-14.8-10.4-24.4
	c0-6.4,1.6-12.4,4.9-17.9c3.2-5.5,7.7-9.8,13.4-12.9c5.7-3.1,12-4.6,19-4.6c4.4,0,8.6,0.7,12.7,2c4.1,1.3,7.6,3.1,10.4,5.3
	C338.9,64.5,341.3,67.2,343.3,70.6z"/>
<path class="st2" d="M426,56.8v66.5h-8.4v-11.4c-3.6,4.4-7.6,7.6-12.1,9.8c-4.5,2.2-9.3,3.3-14.6,3.3c-9.4,0-17.4-3.4-24.1-10.2
	c-6.7-6.8-10-15.1-10-24.9c0-9.6,3.4-17.8,10.1-24.6c6.7-6.8,14.8-10.2,24.3-10.2c5.5,0,10.4,1.2,14.8,3.5
	c4.4,2.3,8.3,5.8,11.6,10.4V56.8H426z M391.8,63.3c-4.8,0-9.2,1.2-13.2,3.5c-4,2.3-7.2,5.6-9.6,9.9c-2.4,4.2-3.6,8.7-3.6,13.4
	c0,4.7,1.2,9.2,3.6,13.4c2.4,4.3,5.6,7.6,9.7,10c4,2.4,8.4,3.6,13,3.6c4.7,0,9.1-1.2,13.3-3.5c4.2-2.4,7.4-5.6,9.7-9.6
	c2.3-4,3.4-8.6,3.4-13.6c0-7.7-2.5-14.1-7.6-19.3C405.5,65.9,399.2,63.3,391.8,63.3z"/>
<path class="st2" d="M444.1,32.6h8.4v90.7h-8.4V32.6z"/>
<path class="st2" d="M469.2,56.8h8.6v31c0,7.6,0.4,12.8,1.2,15.6c1.2,4.1,3.6,7.3,7,9.7c3.4,2.4,7.6,3.5,12.3,3.5s8.8-1.2,12.1-3.5
	c3.3-2.3,5.6-5.3,6.9-9.1c0.9-2.6,1.3-8,1.3-16.3v-31h8.7v32.6c0,9.2-1.1,16.1-3.2,20.7c-2.1,4.6-5.4,8.3-9.7,10.9
	c-4.3,2.6-9.7,3.9-16.2,3.9c-6.5,0-11.9-1.3-16.2-3.9c-4.3-2.6-7.6-6.3-9.7-11c-2.1-4.7-3.2-11.8-3.2-21.2V56.8z"/>
<path class="st2" d="M541,56.8h48.8l-37.6,58.9h36.4v7.6h-51.1l37.6-59H541V56.8z"/>
</svg>
