<?xml version="1.0" encoding="UTF-8"?>
<svg id="Calque_1" xmlns="http://www.w3.org/2000/svg" version="1.1" xmlns:xlink="http://www.w3.org/1999/xlink" viewBox="0 0 500 500">
  <!-- Generator: Adobe Illustrator 29.7.1, SVG Export Plug-In . SVG Version: 2.1.1 Build 8)  -->
  <defs>
    <style>
      .st0 {
        clip-path: url(#clippath-6);
      }

      .st1 {
        clip-path: url(#clippath-7);
      }

      .st2 {
        clip-path: url(#clippath-4);
      }

      .st3 {
        clip-path: url(#clippath-9);
      }

      .st4 {
        clip-path: url(#clippath-10);
      }

      .st5 {
        fill: #fff;
      }

      .st6 {
        clip-path: url(#clippath-11);
      }

      .st7 {
        fill: none;
      }

      .st8 {
        clip-path: url(#clippath-1);
      }

      .st9 {
        fill: #004369;
      }

      .st10 {
        clip-path: url(#clippath-5);
      }

      .st11 {
        clip-path: url(#clippath-8);
      }

      .st12 {
        clip-path: url(#clippath-3);
      }

      .st13 {
        clip-path: url(#clippath-12);
      }

      .st14 {
        clip-path: url(#clippath-14);
      }

      .st15 {
        clip-path: url(#clippath-2);
      }

      .st16 {
        clip-path: url(#clippath-13);
      }

      .st17 {
        clip-path: url(#clippath);
      }
    </style>
    <clipPath id="clippath">
      <rect class="st7" x="46.7" y="51.6" width="400" height="400"/>
    </clipPath>
    <clipPath id="clippath-1">
      <rect class="st7" x="129.4" y="129.8" width="235" height="235"/>
    </clipPath>
    <clipPath id="clippath-2">
      <rect class="st7" x="205.7" y="161.3" width="23" height="26"/>
    </clipPath>
    <clipPath id="clippath-3">
      <rect class="st7" x="124.7" y="108.3" width="38.7" height="40"/>
    </clipPath>
    <clipPath id="clippath-4">
      <rect class="st7" x="125.6" y="112" width="37" height="33" transform="translate(-49 126.5) rotate(-41.1)"/>
    </clipPath>
    <clipPath id="clippath-5">
      <rect class="st7" x="125.6" y="112" width="37" height="33" transform="translate(-49 126.5) rotate(-41.1)"/>
    </clipPath>
    <clipPath id="clippath-6">
      <rect class="st7" x="140.7" y="124.3" width="2.7" height="2.7"/>
    </clipPath>
    <clipPath id="clippath-7">
      <rect class="st7" x="125.6" y="112" width="37" height="33" transform="translate(-49 126.5) rotate(-41.1)"/>
    </clipPath>
    <clipPath id="clippath-8">
      <rect class="st7" x="125.6" y="112" width="37" height="33" transform="translate(-49 126.5) rotate(-41.1)"/>
    </clipPath>
    <clipPath id="clippath-9">
      <rect class="st7" x="142" y="125.6" width="4" height="2.7"/>
    </clipPath>
    <clipPath id="clippath-10">
      <rect class="st7" x="125.6" y="112" width="37" height="33" transform="translate(-49 126.5) rotate(-41.1)"/>
    </clipPath>
    <clipPath id="clippath-11">
      <rect class="st7" x="125.6" y="112" width="37" height="33" transform="translate(-49 126.5) rotate(-41.1)"/>
    </clipPath>
    <clipPath id="clippath-12">
      <rect class="st7" x="143.3" y="124.3" width="2.7" height="2.7"/>
    </clipPath>
    <clipPath id="clippath-13">
      <rect class="st7" x="125.6" y="112" width="37" height="33" transform="translate(-49 126.5) rotate(-41.1)"/>
    </clipPath>
    <clipPath id="clippath-14">
      <rect class="st7" x="125.6" y="112" width="37" height="33" transform="translate(-49 126.5) rotate(-41.1)"/>
    </clipPath>
  </defs>
  <g id="_x31_f2e9c4795">
    <g class="st17">
      <path class="st9" d="M246.7,55.6c-108.1,0-196,87.9-196,196s87.9,196,196,196,196-87.9,196-196S354.8,55.6,246.7,55.6ZM246.7,451.6c-110.3,0-200-89.7-200-200S136.4,51.6,246.7,51.6s200,89.7,200,200-89.7,200-200,200"/>
    </g>
    <path class="st9" d="M246.7,67.5c-101.5,0-184.2,82.6-184.2,184.2s82.6,184.2,184.2,184.2,184.2-82.6,184.2-184.2-82.6-184.2-184.2-184.2ZM246.7,439.8c-103.7,0-188.1-84.4-188.1-188.1S142.9,63.5,246.7,63.5s188.1,84.4,188.1,188.1-84.4,188.1-188.1,188.1h0Z"/>
    <path class="st9" d="M246.7,61.7c-.3,0-.5-.2-.5-.5v-3.4c0-.3.2-.5.5-.5s.5.2.5.5v3.4c0,.3-.2.5-.5.5h0Z"/>
    <path class="st9" d="M256.6,62h0c-.3,0-.5-.3-.5-.5l.2-3.4c0-.3.3-.5.5-.5.3,0,.5.2.5.5l-.2,3.4c0,.3-.2.5-.5.5h0Z"/>
    <path class="st9" d="M266.6,62.7h0c-.3,0-.5-.3-.4-.6l.3-3.4c0-.3.3-.5.5-.4.3,0,.5.3.4.5l-.4,3.4c0,.3-.2.4-.5.4h0Z"/>
    <path class="st9" d="M276.4,64h0c-.3,0-.5-.3-.4-.6l.5-3.3c0-.3.3-.5.6-.4.3,0,.5.3.4.6l-.5,3.3c0,.3-.3.4-.5.4h0Z"/>
    <path class="st9" d="M286.2,65.8s0,0,0,0c-.3,0-.4-.3-.4-.6l.7-3.3c0-.3.3-.4.6-.4.3,0,.4.3.4.6l-.7,3.3c0,.2-.3.4-.5.4h0Z"/>
    <path class="st9" d="M295.9,68.2s0,0-.1,0c-.3,0-.4-.3-.4-.6l.9-3.3c0-.3.3-.4.6-.3.3,0,.4.3.3.6l-.9,3.3c0,.2-.3.4-.5.4h0Z"/>
    <path class="st9" d="M305.5,71s0,0-.1,0c-.3,0-.4-.4-.3-.6l1.1-3.2c0-.3.4-.4.6-.3.3,0,.4.4.3.6l-1,3.2c0,.2-.3.3-.5.3h0Z"/>
    <path class="st9" d="M314.9,74.3c0,0-.1,0-.2,0-.3,0-.4-.4-.3-.6l1.2-3.2c0-.3.4-.4.6-.3.3.1.4.4.3.6l-1.2,3.2c0,.2-.3.3-.5.3h0Z"/>
    <path class="st9" d="M324.1,78.2c0,0-.1,0-.2,0-.3-.1-.4-.4-.3-.7l1.4-3.1c.1-.3.4-.4.7-.3.3.1.4.4.3.7l-1.4,3.1c0,.2-.3.3-.5.3h0Z"/>
    <path class="st9" d="M333.1,82.4c0,0-.2,0-.2,0-.3-.1-.3-.4-.2-.7l1.5-3c.1-.3.4-.3.7-.2.3.1.3.4.2.7l-1.5,3c0,.2-.3.3-.4.3h0Z"/>
    <path class="st9" d="M341.9,87.2c0,0-.2,0-.3,0-.2-.1-.3-.4-.2-.7l1.7-2.9c.1-.2.4-.3.7-.2.2.1.3.4.2.7l-1.7,2.9c0,.2-.3.3-.4.3h0Z"/>
    <path class="st9" d="M350.4,92.4c0,0-.2,0-.3,0-.2-.1-.3-.5-.1-.7l1.8-2.8c.1-.2.5-.3.7-.1.2.2.3.5.1.7l-1.8,2.8c0,.1-.3.2-.4.2h0Z"/>
    <path class="st9" d="M358.6,98.1c0,0-.2,0-.3,0-.2-.2-.3-.5-.1-.7l2-2.7c.2-.2.5-.3.7-.1.2.2.3.5.1.7l-2,2.7c0,.1-.3.2-.4.2h0Z"/>
    <path class="st9" d="M366.5,104.1c-.1,0-.2,0-.3-.1-.2-.2-.2-.5,0-.7l2.1-2.6c.2-.2.5-.3.7,0s.3.5,0,.7l-2.1,2.6c0,.1-.2.2-.4.2h0Z"/>
    <path class="st9" d="M374.1,110.6c-.1,0-.2,0-.3-.1-.2-.2-.2-.5,0-.7l2.3-2.5c.2-.2.5-.2.7,0,.2.2.2.5,0,.7l-2.3,2.5c-.1.1-.2.2-.4.2h0Z"/>
    <path class="st9" d="M381.3,117.5c-.1,0-.3,0-.4-.1-.2-.2-.2-.5,0-.7l2.4-2.4c.2-.2.5-.2.7,0,.2.2.2.5,0,.7l-2.4,2.4c0,0-.2.1-.3.1h0Z"/>
    <path class="st9" d="M388.2,124.7c-.1,0-.3,0-.4-.2-.2-.2-.2-.5,0-.7l2.5-2.3c.2-.2.5-.2.7,0,.2.2.2.5,0,.7l-2.5,2.3c-.1,0-.2.1-.3.1h0Z"/>
    <path class="st9" d="M394.7,132.3c-.1,0-.3,0-.4-.2-.2-.2-.1-.5,0-.7l2.6-2.1c.2-.2.5-.1.7,0,.2.2.1.5,0,.7l-2.6,2.1c0,0-.2.1-.3.1h0Z"/>
    <path class="st9" d="M400.7,140.2c-.2,0-.3,0-.4-.2-.2-.2-.1-.5.1-.7l2.7-2c.2-.2.5-.1.7.1.2.2.1.5-.1.7l-2.7,2c0,0-.2,0-.3,0h0Z"/>
    <path class="st9" d="M406.4,148.4c-.2,0-.3,0-.4-.2-.2-.2,0-.5.1-.7l2.8-1.8c.2-.2.5,0,.7.1.1.2,0,.5-.1.7l-2.8,1.8c0,0-.2,0-.3,0h0Z"/>
    <path class="st9" d="M411.6,156.9c-.2,0-.3,0-.4-.2-.1-.2,0-.5.2-.7l2.9-1.7c.2-.1.5,0,.7.2.1.2,0,.5-.2.7l-2.9,1.7c0,0-.2,0-.3,0h0Z"/>
    <path class="st9" d="M416.3,165.7c-.2,0-.3,0-.4-.3-.1-.2,0-.5.2-.7l3-1.5c.2-.1.5,0,.7.2s0,.5-.2.7l-3,1.5c0,0-.1,0-.2,0h0Z"/>
    <path class="st9" d="M420.6,174.7c-.2,0-.4-.1-.4-.3-.1-.2,0-.5.2-.7l3.1-1.4c.3-.1.5,0,.7.3.1.2,0,.5-.3.7l-3.1,1.4c0,0-.1,0-.2,0h0Z"/>
    <path class="st9" d="M424.4,183.9c-.2,0-.4-.1-.5-.3-.1-.2,0-.5.3-.6l3.2-1.2c.3,0,.5,0,.6.3,0,.3,0,.5-.3.6l-3.2,1.2c0,0-.1,0-.2,0h0Z"/>
    <path class="st9" d="M427.8,193.3c-.2,0-.4-.1-.5-.3,0-.3,0-.5.3-.6l3.2-1c.3,0,.5,0,.6.3,0,.3,0,.5-.3.6l-3.2,1.1c0,0-.1,0-.2,0h0Z"/>
    <path class="st9" d="M430.6,202.8c-.2,0-.4-.2-.5-.4,0-.3,0-.5.3-.6l3.3-.9c.3,0,.5,0,.6.3,0,.3,0,.5-.3.6l-3.3.9s0,0-.1,0h0Z"/>
    <path class="st9" d="M432.9,212.5c-.2,0-.4-.2-.5-.4,0-.3.1-.5.4-.6l3.3-.7c.3,0,.5.1.6.4,0,.3-.1.5-.4.6l-3.3.7s0,0,0,0h0Z"/>
    <path class="st9" d="M434.8,222.3c-.2,0-.4-.2-.5-.4,0-.3.1-.5.4-.6l3.3-.5c.3,0,.5.1.6.4,0,.3-.1.5-.4.6l-3.3.5h0Z"/>
    <path class="st9" d="M436.1,232.2c-.3,0-.5-.2-.5-.4,0-.3.2-.5.4-.5l3.4-.4c.3,0,.5.2.5.4,0,.3-.2.5-.4.5l-3.4.4h0Z"/>
    <path class="st9" d="M436.8,242.2c-.3,0-.5-.2-.5-.5,0-.3.2-.5.5-.5l3.4-.2c.3,0,.5.2.5.5,0,.3-.2.5-.5.5l-3.4.2s0,0,0,0h0Z"/>
    <path class="st9" d="M440.5,252.1h-3.4c-.3,0-.5-.2-.5-.5s.2-.5.5-.5h3.4c.3,0,.5.2.5.5s-.2.5-.5.5h0Z"/>
    <path class="st9" d="M440.2,262.3h0l-3.4-.2c-.3,0-.5-.3-.5-.5s.3-.5.5-.5l3.4.2c.3,0,.5.3.5.5,0,.3-.2.5-.5.5h0Z"/>
    <path class="st9" d="M439.4,272.4h0l-3.4-.4c-.3,0-.5-.3-.4-.5,0-.3.3-.5.6-.4l3.4.3c.3,0,.5.3.4.5,0,.3-.2.4-.5.4h0Z"/>
    <path class="st9" d="M438.1,282.5s0,0,0,0l-3.3-.5c-.3,0-.5-.3-.4-.6,0-.3.3-.5.6-.4l3.3.5c.3,0,.5.3.4.6,0,.2-.3.4-.5.4h0Z"/>
    <path class="st9" d="M436.2,292.4s0,0,0,0l-3.3-.7c-.3,0-.4-.3-.4-.6,0-.3.3-.4.6-.4l3.3.7c.3,0,.4.3.4.6,0,.2-.3.4-.5.4h0Z"/>
    <path class="st9" d="M433.9,302.3s0,0-.1,0l-3.3-.9c-.3,0-.4-.3-.3-.6,0-.3.3-.4.6-.4l3.3.9c.3,0,.4.3.3.6,0,.2-.3.4-.5.4h0Z"/>
    <path class="st9" d="M431,312c0,0,0,0-.2,0l-3.2-1c-.3,0-.4-.4-.3-.6,0-.3.4-.4.6-.3l3.2,1.1c.3,0,.4.4.3.6,0,.2-.3.3-.5.3h0Z"/>
    <path class="st9" d="M427.6,321.6c0,0-.1,0-.2,0l-3.2-1.2c-.3-.1-.4-.4-.3-.6,0-.3.4-.4.6-.3l3.2,1.2c.3,0,.4.4.3.6,0,.2-.3.3-.5.3h0Z"/>
    <path class="st9" d="M423.7,331c0,0-.1,0-.2,0l-3.1-1.4c-.2-.1-.4-.4-.2-.7.1-.3.4-.4.7-.3l3.1,1.4c.2.1.4.4.3.7,0,.2-.3.3-.5.3h0Z"/>
    <path class="st9" d="M419.4,340.1c0,0-.1,0-.2,0l-3-1.5c-.2-.1-.3-.4-.2-.7.1-.2.4-.3.7-.2l3,1.5c.3.1.3.4.2.7s-.3.3-.4.3h0Z"/>
    <path class="st9" d="M414.5,349c0,0-.2,0-.2,0l-2.9-1.7c-.2-.1-.3-.4-.2-.7.1-.2.4-.3.7-.2l2.9,1.7c.2.1.3.4.2.7,0,.2-.3.2-.4.2h0Z"/>
    <path class="st9" d="M409.2,357.7c0,0-.2,0-.3,0l-2.8-1.8c-.2-.2-.3-.5-.1-.7.1-.2.5-.3.7-.1l2.8,1.8c.2.1.3.5.1.7,0,.1-.3.2-.4.2h0Z"/>
    <path class="st9" d="M403.5,366.1c0,0-.2,0-.3,0l-2.7-2c-.2-.2-.3-.5-.1-.7.2-.2.5-.3.7-.1l2.7,2c.2.2.3.5.1.7-.1.1-.3.2-.4.2h0Z"/>
    <path class="st9" d="M397.3,374.1c-.1,0-.2,0-.3-.1l-2.6-2.1c-.2-.2-.2-.5,0-.7.2-.2.5-.2.7,0l2.6,2.1c.2.2.2.5,0,.7,0,.1-.2.2-.4.2h0Z"/>
    <path class="st9" d="M390.7,381.8c-.1,0-.2,0-.3-.1l-2.5-2.3c-.2-.2-.2-.5,0-.7.2-.2.5-.2.7,0l2.5,2.3c.2.2.2.5,0,.7-.1.1-.2.2-.4.2h0Z"/>
    <path class="st9" d="M383.7,389.2c-.1,0-.3,0-.3-.1l-2.4-2.4c-.2-.2-.2-.5,0-.7s.5-.2.7,0l2.4,2.4c.2.2.2.5,0,.7,0,0-.2.1-.3.1h0Z"/>
    <path class="st9" d="M376.3,396.2c-.1,0-.3,0-.4-.2l-2.3-2.5c-.2-.2-.2-.5,0-.7.2-.2.5-.2.7,0l2.3,2.5c.2.2.2.5,0,.7,0,0-.2.1-.3.1h0Z"/>
    <path class="st9" d="M368.6,402.8c-.1,0-.3,0-.4-.2l-2.1-2.6c-.2-.2-.1-.5,0-.7.2-.2.5-.1.7,0l2.1,2.6c.2.2.1.5,0,.7,0,0-.2.1-.3.1h0Z"/>
    <path class="st9" d="M360.6,408.9c-.2,0-.3,0-.4-.2l-2-2.7c-.2-.2-.1-.5.1-.7.2-.2.5-.1.7.1l2,2.7c.2.2.1.5-.1.7,0,0-.2,0-.3,0h0Z"/>
    <path class="st9" d="M352.2,414.7c-.2,0-.3,0-.4-.2l-1.8-2.8c-.2-.2,0-.5.1-.7.2-.2.5,0,.7.1l1.8,2.8c.2.2,0,.5-.1.7,0,0-.2,0-.3,0h0Z"/>
    <path class="st9" d="M343.6,420c-.2,0-.3,0-.4-.2l-1.7-2.9c-.1-.2,0-.5.2-.7.2-.1.5,0,.7.2l1.7,2.9c.1.2,0,.5-.2.7,0,0-.2,0-.3,0h0Z"/>
    <path class="st9" d="M334.6,424.8c-.2,0-.3,0-.4-.3l-1.5-3c-.1-.2,0-.5.2-.7.2-.1.5,0,.7.2l1.5,3c.1.2,0,.5-.2.7,0,0-.1,0-.2,0h0Z"/>
    <path class="st9" d="M325.5,429.2c-.2,0-.4-.1-.5-.3l-1.4-3.1c-.1-.3,0-.5.3-.7.3-.1.5,0,.7.2l1.4,3.1c.1.3,0,.5-.3.7,0,0-.1,0-.2,0h0Z"/>
    <path class="st9" d="M316.1,433.1c-.2,0-.4-.1-.5-.3l-1.2-3.2c0-.3,0-.5.3-.6.3-.1.5,0,.6.3l1.2,3.2c0,.3,0,.5-.3.6,0,0-.1,0-.2,0h0Z"/>
    <path class="st9" d="M306.5,436.5c-.2,0-.4-.1-.5-.3l-1.1-3.2c0-.3,0-.5.3-.6.3,0,.5,0,.6.3l1,3.2c0,.3,0,.5-.3.6s0,0-.2,0h0Z"/>
    <path class="st9" d="M296.8,439.4c-.2,0-.4-.1-.5-.4l-.9-3.3c0-.3,0-.5.4-.6.3,0,.5,0,.6.3l.9,3.3c0,.3,0,.5-.3.6,0,0,0,0-.1,0h0Z"/>
    <path class="st9" d="M287,441.7c-.2,0-.4-.2-.5-.4l-.7-3.3c0-.3.1-.5.4-.6.3,0,.5.1.6.4l.7,3.3c0,.3-.1.5-.4.6,0,0,0,0,0,0h0Z"/>
    <path class="st9" d="M277,443.6c-.2,0-.4-.2-.5-.4l-.5-3.3c0-.3.1-.5.4-.6.3,0,.5.1.6.4l.5,3.3c0,.3-.1.5-.4.6,0,0,0,0,0,0h0Z"/>
    <path class="st9" d="M266.9,444.9c-.3,0-.5-.2-.5-.4l-.3-3.4c0-.3.2-.5.4-.6.3,0,.5.2.5.4l.4,3.4c0,.3-.2.5-.4.5h0Z"/>
    <path class="st9" d="M256.8,445.7c-.3,0-.5-.2-.5-.5l-.2-3.4c0-.3.2-.5.5-.5.3,0,.5.2.5.5l.2,3.4c0,.3-.2.5-.5.5h0Z"/>
    <path class="st9" d="M246.7,446c-.3,0-.5-.2-.5-.5v-3.4c0-.3.2-.5.5-.5s.5.2.5.5v3.4c0,.3-.2.5-.5.5h0Z"/>
    <path class="st9" d="M236.5,445.7h0c-.3,0-.5-.2-.5-.5l.2-3.4c0-.3.3-.5.5-.5.3,0,.5.3.5.5l-.2,3.4c0,.3-.2.5-.5.5h0Z"/>
    <path class="st9" d="M226.4,444.9h0c-.3,0-.5-.3-.4-.5l.4-3.4c0-.3.3-.5.5-.4.3,0,.5.3.4.6l-.4,3.4c0,.3-.2.4-.5.4h0Z"/>
    <path class="st9" d="M216.3,443.6s0,0,0,0c-.3,0-.5-.3-.4-.6l.5-3.3c0-.3.3-.4.6-.4.3,0,.5.3.4.6l-.5,3.3c0,.3-.3.4-.5.4h0Z"/>
    <path class="st9" d="M206.4,441.7s0,0,0,0c-.3,0-.4-.3-.4-.6l.7-3.3c0-.3.3-.4.6-.4.3,0,.4.3.4.6l-.7,3.3c0,.2-.3.4-.5.4h0Z"/>
    <path class="st9" d="M196.5,439.4s0,0-.1,0c-.3,0-.4-.3-.4-.6l.9-3.3c0-.3.3-.4.6-.3.3,0,.4.3.3.6l-.9,3.3c0,.2-.3.4-.5.4h0Z"/>
    <path class="st9" d="M186.8,436.5c0,0-.1,0-.2,0-.3,0-.4-.4-.3-.6l1-3.2c0-.3.4-.4.6-.3.3,0,.4.4.3.6l-1.1,3.2c0,.2-.3.3-.5.3h0Z"/>
    <path class="st9" d="M177.2,433.1c0,0-.1,0-.2,0-.3-.1-.4-.4-.3-.6l1.2-3.2c.1-.3.4-.4.6-.3.3,0,.4.4.3.6l-1.2,3.2c0,.2-.3.3-.5.3h0Z"/>
    <path class="st9" d="M167.8,429.2c0,0-.1,0-.2,0-.3-.1-.4-.4-.3-.7l1.4-3.1c.1-.2.4-.4.7-.2.3.1.4.4.3.7l-1.4,3.1c0,.2-.3.3-.5.3h0Z"/>
    <path class="st9" d="M158.7,424.8c0,0-.2,0-.2,0-.3-.1-.3-.4-.2-.7l1.5-3c.1-.2.4-.3.7-.2.3.1.3.4.2.7l-1.5,3c0,.2-.3.3-.4.3h0Z"/>
    <path class="st9" d="M149.7,420c0,0-.2,0-.3,0-.2-.1-.3-.4-.2-.7l1.7-2.9c.1-.2.4-.3.7-.2.2.1.3.4.2.7l-1.7,2.9c0,.2-.3.2-.4.2h0Z"/>
    <path class="st9" d="M141.1,414.7c0,0-.2,0-.3,0-.2-.1-.3-.5-.2-.7l1.8-2.8c.2-.2.5-.3.7-.1.2.1.3.5.1.7l-1.8,2.8c0,.1-.3.2-.4.2h0Z"/>
    <path class="st9" d="M132.7,408.9c0,0-.2,0-.3,0-.2-.2-.3-.5-.1-.7l2-2.7c.2-.2.5-.3.7-.1.2.2.3.5.1.7l-2,2.7c0,.1-.2.2-.4.2h0Z"/>
    <path class="st9" d="M124.7,402.8c-.1,0-.2,0-.3-.1-.2-.2-.3-.5,0-.7l2.1-2.6c.2-.2.5-.2.7,0,.2.2.2.5,0,.7l-2.1,2.6c0,.1-.2.2-.4.2h0Z"/>
    <path class="st9" d="M117,396.2c-.1,0-.2,0-.3-.1-.2-.2-.2-.5,0-.7l2.3-2.5c.2-.2.5-.2.7,0,.2.2.2.5,0,.7l-2.3,2.5c0,.1-.2.2-.4.2h0Z"/>
    <path class="st9" d="M109.6,389.2c-.1,0-.3,0-.3-.1-.2-.2-.2-.5,0-.7l2.4-2.4c.2-.2.5-.2.7,0s.2.5,0,.7l-2.4,2.4c0,0-.2.1-.3.1h0Z"/>
    <path class="st9" d="M102.6,381.8c-.1,0-.3,0-.4-.2-.2-.2-.2-.5,0-.7l2.5-2.3c.2-.2.5-.2.7,0,.2.2.2.5,0,.7l-2.5,2.3c0,0-.2.1-.3.1h0Z"/>
    <path class="st9" d="M96,374.1c-.1,0-.3,0-.4-.2-.2-.2-.1-.5,0-.7l2.6-2.1c.2-.2.5-.1.7,0,.2.2.1.5,0,.7l-2.6,2.1c0,0-.2.1-.3.1h0Z"/>
    <path class="st9" d="M89.8,366.1c-.2,0-.3,0-.4-.2-.2-.2-.1-.5.1-.7l2.7-2c.2-.2.5-.1.7.1.2.2.1.5-.1.7l-2.7,2c0,0-.2,0-.3,0h0Z"/>
    <path class="st9" d="M84.1,357.7c-.2,0-.3,0-.4-.2-.2-.2,0-.5.1-.7l2.8-1.8c.2-.2.5,0,.7.1.2.2,0,.5-.1.7l-2.8,1.8c0,0-.2,0-.3,0h0Z"/>
    <path class="st9" d="M78.8,349c-.2,0-.3,0-.4-.2-.1-.2,0-.5.2-.7l2.9-1.7c.2-.1.5,0,.7.2.1.2,0,.5-.2.7l-2.9,1.7c0,0-.2,0-.2,0h0Z"/>
    <path class="st9" d="M73.9,340.1c-.2,0-.4,0-.4-.3-.1-.2,0-.5.2-.7l3-1.5c.2-.1.5,0,.7.2.1.3,0,.5-.2.7l-3,1.5c0,0-.1,0-.2,0h0Z"/>
    <path class="st9" d="M69.6,331c-.2,0-.4-.1-.5-.3-.1-.2,0-.5.3-.7l3.1-1.4c.2-.1.5,0,.7.3.1.3,0,.5-.2.7l-3.1,1.4c0,0-.1,0-.2,0h0Z"/>
    <path class="st9" d="M65.7,321.6c-.2,0-.4-.1-.5-.3,0-.3,0-.5.3-.6l3.2-1.2c.3,0,.6,0,.6.3.1.3,0,.5-.3.6l-3.2,1.2c0,0-.1,0-.2,0h0Z"/>
    <path class="st9" d="M62.3,312c-.2,0-.4-.1-.5-.3,0-.3,0-.5.3-.6l3.2-1.1c.3,0,.5,0,.6.3,0,.3,0,.5-.3.6l-3.2,1c0,0-.1,0-.2,0h0Z"/>
    <path class="st9" d="M59.4,302.3c-.2,0-.4-.1-.5-.4,0-.3,0-.5.4-.6l3.3-.9c.3,0,.5,0,.6.4,0,.3,0,.5-.3.6l-3.3.9s0,0-.1,0h0Z"/>
    <path class="st9" d="M57.1,292.4c-.2,0-.4-.2-.5-.4,0-.3.1-.5.4-.6l3.3-.7c.3,0,.5.1.6.4,0,.3-.1.5-.4.6l-3.3.7s0,0,0,0h0Z"/>
    <path class="st9" d="M55.2,282.5c-.2,0-.5-.2-.5-.4,0-.3.1-.5.4-.6l3.3-.5c.3,0,.5.1.6.4,0,.3-.1.5-.4.6l-3.3.5s0,0,0,0h0Z"/>
    <path class="st9" d="M53.9,272.4c-.3,0-.5-.2-.5-.4,0-.3.2-.5.4-.5l3.4-.3c.3,0,.5.2.6.4,0,.3-.2.5-.4.5l-3.4.4h0Z"/>
    <path class="st9" d="M53.1,262.3c-.3,0-.5-.2-.5-.5,0-.3.2-.5.5-.5l3.4-.2c.3,0,.5.2.5.5s-.2.5-.5.5l-3.4.2h0Z"/>
    <path class="st9" d="M56.2,252.1h-3.4c-.3,0-.5-.2-.5-.5s.2-.5.5-.5h3.4c.3,0,.5.2.5.5s-.2.5-.5.5h0Z"/>
    <path class="st9" d="M56.5,242.2s0,0,0,0l-3.4-.2c-.3,0-.5-.3-.5-.5,0-.3.2-.5.5-.5l3.4.2c.3,0,.5.3.5.5,0,.3-.2.5-.5.5h0Z"/>
    <path class="st9" d="M57.3,232.2h0l-3.4-.4c-.3,0-.5-.3-.4-.5s.3-.5.5-.4l3.4.4c.3,0,.5.3.4.5,0,.3-.2.4-.5.4h0Z"/>
    <path class="st9" d="M58.6,222.3h0l-3.3-.5c-.3,0-.5-.3-.4-.6,0-.3.3-.5.6-.4l3.3.5c.3,0,.5.3.4.6,0,.3-.3.4-.5.4h0Z"/>
    <path class="st9" d="M60.4,212.5s0,0,0,0l-3.3-.7c-.3,0-.4-.3-.4-.6,0-.3.3-.4.6-.4l3.3.7c.3,0,.4.3.4.6,0,.2-.3.4-.5.4h0Z"/>
    <path class="st9" d="M62.7,202.8s0,0-.1,0l-3.3-.9c-.3,0-.4-.3-.4-.6,0-.3.3-.4.6-.3l3.3.9c.3,0,.4.3.3.6,0,.2-.3.4-.5.4h0Z"/>
    <path class="st9" d="M65.5,193.3s-.1,0-.1,0l-3.2-1.1c-.3,0-.4-.4-.3-.6,0-.3.4-.4.6-.3l3.2,1c.3,0,.4.4.3.6,0,.2-.3.3-.5.3h0Z"/>
    <path class="st9" d="M68.9,183.9c0,0-.1,0-.2,0l-3.2-1.2c-.3,0-.4-.4-.3-.6.1-.3.4-.4.6-.3l3.2,1.2c.3.1.4.4.3.6,0,.2-.3.3-.5.3h0Z"/>
    <path class="st9" d="M72.7,174.7c0,0-.1,0-.2,0l-3.1-1.4c-.3-.1-.4-.4-.3-.7.1-.3.4-.4.7-.3l3.1,1.4c.2.1.4.4.2.7,0,.2-.3.3-.4.3h0Z"/>
    <path class="st9" d="M77,165.7c0,0-.2,0-.2,0l-3-1.5c-.3-.1-.3-.4-.2-.7.1-.3.4-.3.7-.2l3,1.5c.2.1.3.4.2.7,0,.2-.3.3-.4.3h0Z"/>
    <path class="st9" d="M81.7,156.9c0,0-.2,0-.3,0l-2.9-1.7c-.2-.1-.3-.4-.2-.7.1-.2.4-.3.7-.2l2.9,1.7c.2.1.3.4.2.7,0,.2-.3.2-.4.2h0Z"/>
    <path class="st9" d="M86.9,148.4c0,0-.2,0-.3,0l-2.8-1.8c-.2-.2-.3-.5-.1-.7.2-.2.5-.3.7-.1l2.8,1.8c.2.2.3.5.1.7,0,.1-.3.2-.4.2h0Z"/>
    <path class="st9" d="M92.6,140.2c0,0-.2,0-.3,0l-2.7-2c-.2-.2-.3-.5-.1-.7.2-.2.5-.3.7-.1l2.7,2c.2.2.3.5.1.7,0,.1-.3.2-.4.2h0Z"/>
    <path class="st9" d="M98.6,132.3c-.1,0-.2,0-.3-.1l-2.6-2.1c-.2-.2-.3-.5,0-.7.2-.2.5-.3.7,0l2.6,2.1c.2.2.2.5,0,.7,0,.1-.2.2-.4.2h0Z"/>
    <path class="st9" d="M105.1,124.7c-.1,0-.2,0-.3-.1l-2.5-2.3c-.2-.2-.2-.5,0-.7.2-.2.5-.2.7,0l2.5,2.3c.2.2.2.5,0,.7-.1.1-.2.2-.4.2h0Z"/>
    <path class="st9" d="M112,117.5c-.1,0-.3,0-.3-.1l-2.4-2.4c-.2-.2-.2-.5,0-.7.2-.2.5-.2.7,0l2.4,2.4c.2.2.2.5,0,.7,0,0-.2.1-.4.1h0Z"/>
    <path class="st9" d="M119.2,110.6c-.1,0-.3,0-.4-.2l-2.3-2.5c-.2-.2-.2-.5,0-.7.2-.2.5-.2.7,0l2.3,2.5c.2.2.2.5,0,.7,0,0-.2.1-.3.1h0Z"/>
    <path class="st9" d="M126.8,104.1c-.1,0-.3,0-.4-.2l-2.1-2.6c-.2-.2-.1-.5,0-.7.2-.2.5-.1.7,0l2.1,2.6c.2.2.1.5,0,.7,0,0-.2.1-.3.1h0Z"/>
    <path class="st9" d="M134.7,98.1c-.1,0-.3,0-.4-.2l-2-2.7c-.2-.2-.1-.5.1-.7.2-.2.5-.1.7.1l2,2.7c.2.2.1.5-.1.7,0,0-.2,0-.3,0h0Z"/>
    <path class="st9" d="M142.9,92.4c-.2,0-.3,0-.4-.2l-1.8-2.8c-.1-.2,0-.5.2-.7.2-.1.5,0,.7.1l1.8,2.8c.2.2,0,.5-.1.7,0,0-.2,0-.3,0h0Z"/>
    <path class="st9" d="M151.4,87.2c-.2,0-.3,0-.4-.3l-1.7-2.9c-.1-.2,0-.5.2-.7.2-.1.5,0,.7.2l1.7,2.9c.1.2,0,.5-.2.7,0,0-.2,0-.2,0h0Z"/>
    <path class="st9" d="M160.2,82.4c-.2,0-.3,0-.4-.3l-1.5-3c-.1-.2,0-.5.2-.7.2-.1.5,0,.7.2l1.5,3c.1.2,0,.5-.2.7,0,0-.1,0-.2,0h0Z"/>
    <path class="st9" d="M169.2,78.2c-.2,0-.4-.1-.5-.3l-1.4-3.1c-.1-.3,0-.5.3-.7.2-.1.5,0,.7.3l1.4,3.1c.1.3,0,.5-.3.7,0,0-.1,0-.2,0h0Z"/>
    <path class="st9" d="M178.4,74.3c-.2,0-.4-.1-.5-.3l-1.2-3.2c0-.3,0-.5.3-.6.3,0,.5,0,.6.3l1.2,3.2c0,.3,0,.6-.3.6,0,0-.1,0-.2,0h0Z"/>
    <path class="st9" d="M187.8,71c-.2,0-.4-.1-.5-.3l-1-3.2c0-.3,0-.5.3-.6.3,0,.5,0,.6.3l1.1,3.2c0,.3,0,.5-.3.6,0,0,0,0-.1,0h0Z"/>
    <path class="st9" d="M197.4,68.2c-.2,0-.4-.1-.5-.4l-.9-3.3c0-.3,0-.5.4-.6.3,0,.5,0,.6.3l.9,3.3c0,.3,0,.5-.3.6,0,0,0,0-.1,0h0Z"/>
    <path class="st9" d="M207.1,65.8c-.2,0-.4-.2-.5-.4l-.7-3.3c0-.3.1-.5.4-.6.3,0,.5.1.6.4l.7,3.3c0,.3-.1.5-.4.6,0,0,0,0,0,0h0Z"/>
    <path class="st9" d="M216.9,64c-.2,0-.4-.2-.5-.4l-.5-3.3c0-.3.1-.5.4-.6.3,0,.5.1.6.4l.5,3.3c0,.3-.1.5-.4.6h0Z"/>
    <path class="st9" d="M226.7,62.7c-.2,0-.5-.2-.5-.4l-.4-3.4c0-.3.2-.5.4-.5s.5.2.5.4l.4,3.4c0,.3-.2.5-.4.6h0Z"/>
    <path class="st9" d="M236.7,62c-.3,0-.5-.2-.5-.5l-.2-3.4c0-.3.2-.5.5-.5.3,0,.5.2.5.5l.2,3.4c0,.3-.2.5-.5.5h0Z"/>
    <path class="st9" d="M246.7,61.7c-.3,0-.5-.2-.5-.5v-3.4c0-.3.2-.5.5-.5s.5.2.5.5v3.4c0,.3-.2.5-.5.5h0Z"/>
    <path class="st9" d="M376.8,251.6c0,71.9-58.3,130.2-130.2,130.2s-130.2-58.3-130.2-130.2,58.3-130.2,130.2-130.2,130.2,58.3,130.2,130.2h0Z"/>
    <path class="st9" d="M102.3,201.8l6.6,2.1-5.7,4v6.9c0,0-5.5-4.2-5.5-4.2l-6.6,2.2,2.2-6.6-4.1-5.6h6.9c0,0,4-5.6,4-5.6l2.1,6.6h0Z"/>
    <path class="st9" d="M398.8,202.8l6.9-.4-3.9,5.8,2.5,6.5-6.7-1.9-5.4,4.4-.2-6.9-5.8-3.7,6.5-2.4,1.8-6.7,4.3,5.5h0Z"/>
    <path class="st9" d="M94.3,245.9l6.8,1.4-5.2,4.5.8,6.9-5.9-3.6-6.3,2.9,1.6-6.8-4.7-5.1,6.9-.6,3.4-6,2.7,6.4h0Z"/>
    <path class="st9" d="M99.3,291.3l6.8-1.4-3,6.3,3.5,6-6.9-.9-4.6,5.2-1.3-6.8-6.3-2.8,6.1-3.3.7-6.9,5,4.8h0Z"/>
    <path class="st9" d="M394.8,290.1l3.3-6.1,2.8,6.4,6.8,1.3-5.2,4.6.9,6.9-6-3.5-6.3,3,1.5-6.8-4.8-5.1,6.9-.7h0Z"/>
    <path class="st9" d="M399.4,245.9l3-6.2,3.1,6.2,6.9,1-4.9,4.9,1.2,6.8-6.2-3.2-6.1,3.3,1.1-6.8-5-4.8,6.9-1h0Z"/>
    <g class="st8">
      <path class="st5" d="M161.4,281.9c2-3.7,5.1-8.5,9.7-13.3,4.9-5.1,11.5-10.2,20.1-14.1l6.4-2.9-4.2,5.6c-5.1,6.9-8.9,14.8-11.2,23-2.2,8-2.9,16.4-1.9,24.7,1.2,9.4,4.7,18,12,24.2,4.6,4,10.8,7.1,18.8,8.8,16.1-16.8,33.5-69.2,41.2-91.9,9.4,1.1,21.4,1.1,31.1-.3,2.2-2.6,4.4-5.1,6.7-7.3,10.3-10.2,25.8-19.5,41.9-25.2,8.3-2.9,16.8-4.9,25-5.6h0c2,5.7,3.6,11.6,4.7,17.5,1.4,7.2,2,14.5,2,21.8s-1,17.6-2.9,26.1c-1.9,8.5-4.8,16.9-8.7,24.8-1.4,2.8-2.8,5.7-4.3,8.6-5.8,11.3-13.9,29.4-13.6,40.6-5-1.9-9.8-5-13.9-8.9-10.3,8.3-21.8,14.8-34.1,19.3-12.7,4.6-26.2,7-40,7s-10-.3-15-1c-6.9-.9-12.5-1.8-18.8-4.9,11.2-.3,34.5,4.9,56.7-18.2-7.9,12.7-20.7,17.2-25.2,18.6-2.9.8-5.8,1.4-8.8,1.7,9.2.9,24.4,2.5,30.8-4.9-.6,1.3-1.9,2.9-3.3,4.2,7.7-1.1,15.1-3,22.4-5.6,11.8-4.3,23-10.5,32.9-18.5-.4-.5-.9-1-1.3-1.5-20.6,13.9-41,18.6-41,18.6,18.8-6.7,34.7-19.4,38.1-22.3-.9-1.3-1.7-2.6-2.5-4-3.2,2.9-10.8,8.8-18.1,11.9,11.1-8.4,16.1-16.1,16.1-16.1-2.3-5.7-3.2-11.9-2.2-18.1,6.7.6,20,.6,33.3-9.1-1.8,3.2-12.8,11-30,13.8.6,2.8,4.6,25,22.9,36.2-1.9-5.4-1.2-11.4.9-17.7-1.5,1.7-3.9,4.2-6.2,5.6,4-5.6,11.5-17.9,11.5-17.9h0c1.7-3.4,3.5-6.7,5.2-10.1,1.5-2.8,2.9-5.7,4.3-8.5,1.2-2.6,2.4-5.2,3.4-7.9-17.6,7.7-41.1-3.3-51.1-18.7-5.2-7.9-6.3-17.9-5.7-25.4.6,1.6.5,31.3,31.3,40.1,13.5,3.8,24.5,1.6,30.5-12.2,1.9-8.3,2.8-16.8,2.8-25.4s-.7-14.2-2-21.2c-.5-2.4-1-4.8-1.6-7.2-1.9.6-3.4,1.6-5,2.5-.5-1.8-.3-7.9-.3-7.9-6,.9-12.2,2.5-18.2,4.7-15.6,5.5-30.3,14.4-40.2,24.1-15.4,15.2-31.5,44.7-49.5,68.4h0c4.8-4.9,39.5-50.3,44.3-54.9-5.2,7.6-26.3,38.2-34,47.5,8.5-4.9,27.2-30,31.7-35.2-12.6,21.9-60.1,77.7-90.7,78.3,2.5-.6,4.9-1.4,7.3-2.4-4.5-1.2-11.5-5.8-12.2-7,6.9,4.1,17.4,4.4,17.4,4.4-5-1.3-9.2-3.1-12.9-5.3h0c-2.8-1.2-6.4-3.7-10.3-6.4-1.5-1.1-8.7-5.6-11.6-5.7-1.3,0-1.8,2.4-2.3,3.7-.5-3.6-1.2-7-3-11.3-6.5-15.4-10.8-32.7-10.8-32.8-1.1-.6-2.2-1.2-3.2-1.9l-.3,5.1-3.1-7.2c-1.6-1-3-2-4.4-3,.3,3.4.8,8.3,1.9,12.8-2.8-5.1-4.9-12.1-6-15.9h-.2c-3.1-2.6-5.7-5-7.7-6.9,3.3,19,11.2,36.6,22.8,51.3,10.5,13.3,26.9,28.6,47.9,39.1-20.2-7.7-37.5-20.7-50.4-37.1-12.9-16.4-21.4-36.3-24.2-57.8l-.6-5,3.4,3.7c1.9,2.1,5.6,5.8,10.9,10,4.7,3.7,10.7,7.8,17.8,11.5h0ZM133.7,220.5c7.3-31.3,27-61.3,58.5-77.8,21.8-11.4,65-20.3,95.8-4-27.7-10.6-68.3-6.8-94.3,6.8-29.9,15.6-48.9,43.7-60,74.9h0ZM295.4,152.4s27,3.3,45.3,38.9c-1.4-5.8-7.6-21.9-28.4-34.9,9.7,3.8,31.6,14.8,43.2,47.9-2.2-26.2-34-55.6-60.1-52ZM307.6,161.1s19.6,11,24.3,43.5c1-4.8-1.1-32.6-24.3-43.5ZM299.2,158.7c17.2,11.9,24.2,34.4,13.4,56.8,14.5-19.3,6.6-46.9-13.4-56.8ZM272.6,177.5c-1-10.1,10.8-22.5,23-21.1-9.9-4.8-26.3,7.8-23,21.1ZM289.6,180.2c-6.2-1.3-5-7.7-1.4-11.2,5.3-5.1,12.4-2.4,14.8,4.6-.3-6.6-7.4-11.1-12.8-9-3.5,1.4-6.5,5-6.8,8.7-.3,3.7,2,7,6.2,7ZM273.8,182.6c7.5,11.6,27,9.1,29.8-7-.1,8.3-4.6,14.9-13,15.9-6.4.8-14.4-1.3-16.8-8.9ZM309.4,176.9s2.8,26.5-20.9,49.5c6.1-2.5,28.1-24.4,20.9-49.5ZM303.4,187.1s-2.3,16.8-27,37.9c14.8-8.1,27.7-25.7,27-37.9ZM297.7,191.2s-6.4,16.2-27.8,23.9c3.8.5,23.6-5.2,27.8-23.9ZM254.3,206.8s14.9,9.2,10,34.1c1.3-2.1,6.3-16.4-4.7-30.7,2.6,1.9,14.7,10,12.8,34.1,1.1-1.6,5.6-30.3-18.1-37.5h0ZM247.2,204c13.7,7.8,9.9,25.3,6.4,35.3,7.5-10.6,9.1-29.9-6.4-35.3ZM233.4,203.2s16.4-2,18.7,19c2.8-9.3-5.4-22.3-18.7-19ZM224.5,229.6c-6.7-4.6-6.2-14.3-.3-19.3,5.7-4.8,13.3-5,18.8.3-4-6.3-12.5-7.6-18.5-3.4-3.9,2.8-6.4,6.7-6.4,11.4,0,4.5,2.1,9.3,6.4,10.8ZM227.9,217.9c9.2-3.5,12.7,8.9,2.5,12.4,3.3-.2,6.7-2.4,8-5.5,2.6-5.8-4.6-14.1-10.6-6.9h0ZM244.9,213.5s2.9,16.3-15.1,23.1c5.8-.8,20.4-7.7,15.1-23.1ZM213.4,248.8s30.5,3.4,37.8-21c-2.8,3.9-8.2,18.2-37.8,21ZM250.1,243.2s-6.2,8.1-14.4,10.9c2.5,0,10.2-1.7,14.4-10.9ZM164,256.9s10-13.5,34.7-10.4c2.2.4,4.3.9,6.3,1.4-13.2-5-30.2-8.3-43.7-2.2-5.8,2.6-11.9,7.1-15.8,13.8,9-12.2,23.7-15.4,38.3-14.8-5.9.9-15.2,3.7-19.9,12.2h0ZM145.4,247.6s9.7-10.7,27-11.7c-2.9-.8-19.9.1-27,11.7ZM129.8,252.6c13.8-47.7,53.8-46.1,87.4-38.2-12.1-1.3-27.5-2.7-42.4.4,13.8,0,24.7,3.5,31.5,6.2-33.5-9.7-52.4,1.9-56.3,4.7-7.9,6-14.9,14.6-20.2,26.9h0ZM180.3,236.5c7.3.1,34.5,5.8,42.5,2.1-14.8,1.1-33.5-3.9-42.5-2.1ZM148.3,230.5c11.7-7.2,26.2-5.9,39.1-2.9,8.6,2,26.3,8.4,34.3,3.8-15.1.7-24.1-5.5-39-7.6-11.4-1.6-24.3-1-34.4,6.6h0ZM203,260.7c8.6-10.9,33.9-3.8,30.9,12.8,1.7-3.5.1-10.1-2.2-13.3-4.6-6.1-14.2-8.3-21.1-5.9-2.7,1-5.3,2.9-7.6,6.4h0ZM208.6,267.9c6.1-5,15.6,2,9.6,10.1,5.1-3.7,4.1-11.9-2.4-13.3-2.7-.5-5.4.6-7.3,3.1h0ZM201.3,265s-2.7,15.7,13.3,14.4c-.9.7-11,4.8-20.6-3.4,1.4.7,3.6,2.6,10.8,3.5-2.2-2.5-5.9-7.1-3.5-14.5ZM202.5,296.7s20.9-1.9,30-18.3c-3.9,13-15.9,19.1-30,18.3ZM186.4,292.9c.9,1,6.8,4.2,12.8,4.1-3.2-.7-7.8-2.3-12.8-4.1ZM192.6,312.3c9.7,3.5,24.6,1.1,32.6-8-2.2,1.6-15,10.6-32.6,8ZM196.6,325.6c9.7,1.4,27.1-5.9,28.8-16.4-5.6,10.3-19.5,15.4-28.8,16.4ZM241.2,295.7s5.3-.9,11.1-4.3c1.5-2.3,2.9-4.5,4.4-6.8-3.5.3-7.6.4-11.1,0,0,0,6.6-.3,13.5-3.7,1.4-2.3,2.9-4.5,4.3-6.7-3.9.2-9.3,0-13.6-1.2,0,0,8.4.5,16.7-3.5,1.5-2.3,2.9-4.5,4.4-6.7-3.7.3-10.8.2-16.4-1.4,0,0,11.9,1,21.4-5.8,1.1-1.5,2.2-3,3.2-4.4-4.9.2-13.2.1-23.7-1-6.9,20.7-22.6,64.2-37.7,83.9,12-9.8,22.5-24.2,32.5-39.4-2.9.5-6,.9-8.9.9h0ZM259,327.7s1.4-3.4,5.6-3.2c6.3.3,6,8.5,2.3,12.7,3.5-1.9,5.2-5.1,4.9-8.3-1-9.2-12.5-7.3-12.8-1.1ZM253.8,315c-8.7,7.3-4.7,24.7,8.3,24.1-5,1.9-8.4,1-10.7-1.3-5.1-5.3-4.9-18.7,2.4-22.7ZM258.1,312.2s21.1-2.6,27.6,20.4c.6-5.8-3.6-20.8-22.4-22,4-1.1,22-1.1,27.9,15.4.7-13.1-23.3-24.3-33.2-13.7ZM277.8,308.2s14.8-1.6,21.9,9.2c0-1.7-7.1-14.5-21.9-9.2ZM206.8,348.8s23.8,9.6,48.8-2.5c-7.7,1.9-21.6,5.9-48.8,2.5ZM289.1,272.8s-11.1,17.1-24.7,30.6c3.7-1.6,18.2-13.7,24.7-30.6ZM292.5,253s3.2,35.2,36.2,39.5c-6.7.6-24-4.4-27-8.1-2.9-3.6-8.2-13.5-9.2-31.3ZM148.4,290.6s3.8,11.4,12.8,22.8c-1.9-4.7-6.7-14.9-12.8-22.8ZM276.9,347.1s7-5.1,14-7c-.8.9-9.2,6.3-14,7ZM323,241c2,0,3.6,1.6,3.6,3.6s-1.6,3.6-3.6,3.6-3.6-1.6-3.6-3.6,1.6-3.6,3.6-3.6ZM323,237.9c-3.7,0-6.7,3-6.7,6.7s3,6.7,6.7,6.7,6.7-3,6.7-6.7-3-6.7-6.7-6.7ZM323,235.2c5.2,0,9.4,4.2,9.4,9.4s-4.2,9.4-9.4,9.4-9.4-4.2-9.4-9.4,4.2-9.4,9.4-9.4ZM325.1,280.4s13.9,6,22.4,0c4.3-3,8.6-16.7,9.5-23.5-1.7,6.8-3.2,13.2-9.9,19.1-6.6,5.9-12.7,6.4-22.1,4.3ZM322.8,332c4.6-15.2,15.1-21.7,22.7-34.7-4.4,14.2-16,22.7-22.7,34.7ZM314.7,316.6c12.1-2.7,18.4-8.2,28.7-20.7-7.1,5.7-14.2,12.8-28.7,20.7ZM170.6,305.5c-3.8-11.8-1.8-24.1-.1-30.6-1.9,2.3-3.4,4.5-4.6,6.5-1.5,8.7-.9,21.2,1.4,29.8,1.2,4.9,3.2,7.3,4.7,8.7.6.5,1.5,1,2.5,1.3-.7-1.6-1.6-4.4-2.2-8.3,0,0,2.1,5.5,5.2,9.2,1.8.5,3.8.9,5.4,1.5-3.4-5.4-5.3-11.6-6.1-18.2-1.1-8.8-.3-17.6,2-26.1,1.8-6.4,4.4-12.6,7.8-18.3-3,1.8-5.7,3.7-8.1,5.7-10.9,11.3-7.9,38.8-7.9,38.8h0Z"/>
    </g>
    <g class="st15">
      <path class="st5" d="M216.9,161.3s.6,12.2-11.3,12.6c0,0,11.3-.5,11.3,13.4,0,0,0-12.9,11.3-13.4,0,0-11.3,0-11.3-12.6Z"/>
    </g>
    <path class="st5" d="M144,149h0Z"/>
    <path class="st5" d="M158.1,136.6h0Z"/>
    <path class="st9" d="M182.2,118.9c2.3-1.2,3.6-3,3.6-5.4l2.9-1.4c.2,1.9-.1,3.6-1,5.3-.8,1.6-2.3,2.9-4.3,4-2.6,1.3-5.2,1.5-7.7.6-2.5-.9-4.3-2.6-5.6-5.2-1.3-2.6-1.6-5.1-.8-7.5.8-2.5,2.5-4.4,5.1-5.7,2.6-1.3,5.1-1.5,7.6-.5,2.4.9,4.2,2.7,5.5,5.2l.5,1-14.6,7.2c1,1.5,2.3,2.5,3.9,3,1.6.5,3.3.4,5-.5ZM175.5,105.8c-1.6.8-2.7,2-3.3,3.5-.6,1.4-.6,3,0,4.6l11.9-5.8c-1-1.4-2.2-2.3-3.7-2.8-1.6-.5-3.2-.3-4.8.5Z"/>
    <path class="st9" d="M209.1,90.7l.8,2.8h-.3c-2,.7-3.4,1.9-4.3,3.9-.8,1.9-.9,3.9-.3,6.1l2.3,8.2-2.8.8-5.3-18.7,2.8-.8,1.3,4.6c0-2.1,1-3.9,2.7-5.4.7-.6,1.7-1.1,2.8-1.4h.2Z"/>
    <path class="st9" d="M236,104.1c1.2-.1,2.3-.6,3.2-1.3.9-.8,1.5-1.7,1.9-2.9l3.1-.3c-.4,2-1.4,3.6-2.8,4.9-1.6,1.3-3.5,2.1-5.8,2.3-2.8.3-5.2-.5-7.2-2.3-1.9-1.7-3-4-3.2-6.8s.4-5.3,1.9-7.3c1.6-2.1,3.9-3.2,6.7-3.5,2.3-.2,4.3.2,6.1,1.2,1.7,1,2.9,2.5,3.6,4.3l-3.1.3c-.5-1.1-1.3-1.9-2.3-2.5-1-.6-2.1-.9-3.4-.8-1.2.1-2.3.4-3.1.9-.8.5-1.5,1.1-2,1.8-1.2,1.5-1.6,3.3-1.5,5.4.2,2.1,1,3.7,2.4,5,1.4,1.3,3.2,1.9,5.5,1.7Z"/>
    <path class="st9" d="M273.4,104.8c-1.8,2.1-4.3,2.9-7.3,2.5-2.8-.4-4.9-1.6-6.4-3.8-1.5-2.1-2.1-4.6-1.7-7.4.3-2.8,1.5-5.1,3.5-6.8,2-1.7,4.4-2.4,7.3-2,2.9.4,5,1.8,6.3,4.3l.4-3.1,2.9.4-2.5,19.3-2.9-.4.4-3.1ZM266.8,104.7c2.1.3,3.8-.2,5.2-1.5,1.3-1.2,2.1-2.9,2.4-4.9.3-2.1,0-3.9-1.1-5.4-1-1.6-2.6-2.5-4.7-2.8-2.1-.3-3.8.3-5.3,1.5-1.4,1.2-2.2,2.9-2.5,4.9-.3,2.1.1,3.9,1.2,5.4,1.1,1.6,2.7,2.5,4.7,2.8Z"/>
    <path class="st9" d="M293.3,112.9l-2.8-.9,8-26,2.8.9-8,26Z"/>
    <path class="st9" d="M320.1,124.4l1.4-2.7c-1.1.5-2.2.8-3.4.9-1.2.1-2.4-.1-3.5-.7-1.2-.6-2.1-1.2-2.7-2-.7-.7-1.1-1.6-1.4-2.6-.7-2.1-.5-4.3.7-6.7l5.1-10.1,2.6,1.3-5.1,10c-.8,1.6-1,3.1-.6,4.5s1.3,2.5,2.8,3.2c1.5.7,2.9.9,4.4.4,1.5-.5,2.7-1.5,3.5-3l5.1-10,2.6,1.3-8.8,17.3-2.6-1.3Z"/>
    <path class="st9" d="M338.6,133.2l9.1,7.3-1.7,2.1-12-9.5,1.7-2.1,17.8-3.8-9-7.1,1.7-2.1,11.9,9.4-1.7,2.1-17.8,3.7Z"/>
    <path class="st9" d="M116.6,335.7c-1.5.9-3,1.1-4.4.6-1.4-.4-2.7-1.5-3.6-3.1l-2.7-4.6-6.1,3.6-1.3-2.1,15.7-9.3,3.9,6.6c1,1.8,1.4,3.3,1.2,4.8-.3,1.5-1.1,2.6-2.6,3.5ZM115.4,333.6c2-1.2,2.3-3,.9-5.4l-2.5-4.2-6.2,3.6,2.5,4.3c1.4,2.4,3.2,2.9,5.3,1.7Z"/>
    <path class="st9" d="M121.1,362.3l2.8-8.5-3.6-4.4-5.8,4.8-1.6-1.9,14-11.7,5.5,6.6c1.3,1.6,2,3.1,2,4.5,0,1.5-.6,2.7-1.9,3.8-1,.9-2.2,1.3-3.4,1.3-1.2,0-2.3-.5-3.4-1.4l-2.7,9-1.8-2.2ZM130.9,353.7c.8-.7,1.2-1.5,1.2-2.4,0-.9-.5-1.9-1.4-2.9l-3.7-4.5-5.2,4.3,3.8,4.6c.8,1,1.7,1.6,2.6,1.8.9.2,1.8-.1,2.7-.8Z"/>
    <path class="st9" d="M131.6,373.2l12-13.8,10.5,9.1-1.3,1.5-8.6-7.5-3.8,4.4,8,7-1.3,1.5-8-7-4.2,4.8,9,7.8-1.3,1.5-10.9-9.4Z"/>
    <path class="st9" d="M165.6,398l6.3-10.4c.7-1.2,1.4-2.2,2.1-3.3-1.1,1.1-2.1,1.9-2.9,2.5l-10.5,8.2-1.5-.9,2.4-13.1.5-2.3.4-1.4-.7,1.2-1.2,2.1-6.3,10.4-1.9-1.1,9.5-15.6,2.8,1.7-2.4,13.3c-.1.5-.3,1.1-.4,1.6-.2.6-.3,1-.4,1.3.2-.3.6-.7,1.2-1.1.6-.5.9-.8,1.1-.9l10.6-8.4,2.7,1.6-9.5,15.6-1.9-1.1Z"/>
    <path class="st9" d="M179.6,404.8l7.2-16.8,2.3,1-7.2,16.8-2.3-1Z"/>
    <path class="st9" d="M201.2,412.9c-1.4-.4-2.6-1-3.5-1.9-.9-.8-1.6-1.8-1.9-3-.3-1.2-.3-2.4.1-3.8l3.2-11.2,2.4.7-3.1,11c-.5,1.6-.4,2.9.2,4,.6,1.1,1.6,1.8,3.2,2.3,1.6.4,2.9.4,4-.3,1.1-.6,1.9-1.7,2.4-3.4l3.1-10.8,2.4.7-3.1,11c-.4,1.4-1.1,2.6-2,3.4-.9.9-2,1.4-3.2,1.6-1.3.2-2.6.1-4.1-.3Z"/>
    <path class="st9" d="M237,418.9l1.2-12.1c.1-1.3.3-2.6.5-3.8-.6,1.5-1.1,2.6-1.5,3.5l-6,11.9-1.7-.2-3.5-12.8-.5-2.3-.3-1.5v1.4c-.1,0-.3,2.4-.3,2.4l-1.2,12.1-2.2-.2,1.9-18.1,3.3.3,3.5,13.1c.1.5.3,1.1.4,1.7,0,.6.2,1,.2,1.3.1-.3.3-.8.6-1.5.3-.7.5-1.1.6-1.3l6-12.1,3.1.3-1.9,18.1-2.2-.2Z"/>
    <path class="st9" d="M250.2,419.1h0Z"/>
    <path class="st9" d="M283.7,406c.4,2.5.1,4.7-.9,6.6-1,1.8-2.6,3.1-4.8,3.8.5,1,1.1,1.7,1.8,2.1.7.4,1.4.5,2.3.4.5,0,.9-.2,1.4-.4l.3,1.7c-.8.3-1.5.5-2.2.7-1.3.2-2.4,0-3.4-.6-.9-.6-1.8-1.7-2.7-3.3-1.7.2-3.2,0-4.6-.5-1.3-.6-2.5-1.5-3.4-2.8-.9-1.3-1.5-2.8-1.8-4.6-.5-2.9-.1-5.3,1.2-7.1,1.3-1.9,3.4-3.1,6.2-3.6,1.8-.3,3.5-.2,4.9.3,1.5.5,2.7,1.4,3.6,2.6,1,1.3,1.6,2.8,1.9,4.7ZM281.2,406.5c-.4-2.2-1.3-3.9-2.6-5-1.3-1.1-3-1.4-5-1.1-2.1.3-3.5,1.3-4.5,2.7-.9,1.5-1.2,3.3-.8,5.6.4,2.3,1.3,4,2.6,5.1,1.4,1.1,3.1,1.5,5.1,1.2,2.1-.3,3.5-1.3,4.4-2.7.9-1.5,1.1-3.4.7-5.7Z"/>
    <path class="st9" d="M304.2,409.6c-1.4.5-2.7.7-4,.6-1.2-.1-2.3-.6-3.3-1.4-.9-.8-1.6-1.8-2.1-3.2l-3.9-10.9,2.4-.8,3.8,10.8c.6,1.6,1.4,2.6,2.5,3.2,1.1.5,2.4.5,3.9,0,1.5-.6,2.6-1.4,3.1-2.5.6-1.2.6-2.5,0-4.2l-3.8-10.6,2.3-.8,3.8,10.7c.5,1.4.6,2.7.4,3.9-.2,1.2-.8,2.3-1.7,3.2-.9.9-2.1,1.6-3.5,2.1Z"/>
    <path class="st9" d="M334.6,395.2l-4.4-3.7-7.3,4,.7,5.7-2.3,1.2-2.2-19.6,2.4-1.4,15.2,12.5-2.2,1.2ZM321.3,383.8v.4c.2.7.4,1.7.6,2.9l.8,6.4,6-3.3-4.9-4.1c-.5-.4-1-.9-1.6-1.4l-.8-.8Z"/>
    <path class="st9" d="M345.9,387.7l-11-14.5,2-1.5,9.8,12.9,7.3-5.6,1.2,1.6-9.3,7.1Z"/>
    <path class="st9" d="M364,372.7l-12.6-13.1,1.8-1.7,12.6,13.1-1.8,1.7Z"/>
    <path class="st9" d="M366.9,345.7l12.6,10.3-1.6,1.9-12.6-10.3-4,4.9-1.6-1.3,9.5-11.6,1.6,1.3-4,4.9Z"/>
    <path class="st9" d="M387.5,330.9l6.5,3.8-1.3,2.1-6.5-3.8-12.8.6,1.4-2.3,10.3-.4-4.7-9.1,1.4-2.3,5.6,11.5Z"/>
    <g class="st12">
      <g class="st2">
        <g class="st10">
          <path class="st9" d="M144.1,109.5c-1.8,1.6-3,3.1-3.7,4.2-.6.9-1.3,1.9-1.7,3.4-.7,1.9-.7,3.6-.6,4.7-1-.2-2.5-.3-4.3,0-.8.1-1.6.4-3.2,1.1-1.5.6-3.5,1.7-5.9,3.2l19,21.6c.2-.3.4-.7.5-1.1.2-.6.2-1.1.2-1.4-5.5-6.2-10.9-12.3-16.4-18.5.8-.6,1.9-1.2,3.3-1.6,2.6-.9,4.9-.9,6.4-.8.3,1.3.8,3,1.9,4.9.8,1.4,1.7,2.6,2.5,3.4,1.3,1.4,2.5,2.1,3.3,2.5.9.6,2.4,1.3,4.2,1.8.1.6.2,1.2.4,1.8.5.6,1.1,1.2,1.6,1.7,0-.5,0-1,0-1.5,0-.5,0-1.1.1-1.6.4,0,.9,0,1.5,0,.7,0,1.2.1,1.8.2l-1.7-1.9c-.6-.1-1.2-.3-1.8-.4-.2-1.1-.5-2.6-1.2-4.2-.7-1.6-1.5-2.9-2.2-3.8-.8-1-2-2.3-3.9-3.5-1.4-.9-2.8-1.4-3.8-1.6-.1-.9-.4-2.8.5-5.1.9-2.3,2.5-3.7,3.2-4.2,5.3,6.2,10.5,12.4,15.8,18.6.3.1.8.3,1.5.2.8,0,1.4-.3,1.7-.5-6.3-7.1-12.6-14.2-18.9-21.3h0ZM146.4,133.3c-.8-.4-2.2-1.3-3.6-2.8-.6-.7-1.4-1.6-2-3-.6-1.4-.8-2.7-.8-3.5.8.1,2.1.4,3.6,1.2.1,0,.4.2.8.5,0,0,0-.1,0-.2.2.1.4.3.5.4,0,0,0,.1,0,.2.5.4,1.1.9,1.6,1.6,1,1.2,1.4,2.3,2.1,3.8.6,1.3.9,2.5,1.1,3.3"/>
        </g>
      </g>
    </g>
    <g class="st0">
      <g class="st1">
        <g class="st11">
          <path class="st9" d="M141.1,126.3c.3.3.7.3,1,0,.3-.3.3-.7,0-1-.3-.3-.7-.3-1,0s-.3.7,0,1Z"/>
        </g>
      </g>
    </g>
    <g class="st3">
      <g class="st4">
        <g class="st6">
          <path class="st9" d="M142.4,128.2c.3,0,1.1-.3,1.8-.9.4-.4.7-.9.8-1.2-.2-.2-.4-.3-.5-.4-.1.3-.3.7-.6,1.1-.5.7-1.1,1.2-1.5,1.4h0Z"/>
        </g>
      </g>
    </g>
    <g class="st13">
      <g class="st16">
        <g class="st14">
          <path class="st9" d="M145.1,126c-.2-.2-.4-.3-.6-.5,0,0,0,.2,0,.2.2.1.4.2.6.4,0,0,0-.1.1-.2h0Z"/>
        </g>
      </g>
    </g>
  </g>
  <path class="st9" d="M122.3,164.5l5.9,3.6-6.5,2.5-1.6,6.8-4.4-5.4-6.9.6,3.8-5.8-2.7-6.4,6.7,1.8,5.3-4.5.4,6.9"/>
  <path class="st9" d="M382,164.8l6.8-1.4-3,6.3,3.4,6-6.9-.9-4.7,5.1-1.2-6.8-6.3-2.9,6.1-3.3.8-6.9,5,4.8"/>
</svg>