<?xml version="1.0" encoding="UTF-8"?>
<svg id="Calque_1" data-name="Calque 1" xmlns="http://www.w3.org/2000/svg" viewBox="0 0 531.7 93.46">
  <defs>
    <style>
      .cls-1 {
        fill: #fff;
      }

      .cls-2 {
        fill: none;
      }
    </style>
  </defs>
  <g>
    <path class="cls-2" d="M36.15,37.74c-1.49,4.7-1.45,8.51-1.39,11.62.13,6.75,1.77,11.78,2.68,14.5,1.41,4.22,3.2,7.79,4.97,10.72,1.18-2.43,2.74-5.94,4.17-10.33,1.62-4.95,2.8-8.57,2.98-13.6.1-2.81-.14-5.3-.48-7.32-1.02.45-2.54.97-4.48,1.03-2.96.1-5.18-.92-6.19-1.46,1.55.18,3.85.26,6.52-.37,1.48-.35,2.72-.83,3.73-1.32-.36-1.57-.73-2.65-.88-3.07-1.76-4.99-4.38-8.5-6.16-10.53-1.65,2.05-3.97,5.44-5.46,10.13ZM44.08,35.4c0,1.25-1.02,2.27-2.27,2.27s-2.27-1.02-2.27-2.27,1.02-2.27,2.27-2.27,2.27,1.02,2.27,2.27Z"/>
    <path class="cls-1" d="M82.62.79c-7.66,0-13.8,1.24-17.97,2.38-3.51.97-7.17,2-11.42,4.47-5.7,3.32-9.39,7.43-11.52,10.23-2.09-2.55-5.52-6.15-10.63-9.14-2.22-1.3-4.78-2.49-9.98-4.12C16.12,3.06,9,1.19,0,0l.4,92.95c.98-.27,2.31-.76,3.72-1.64,1.68-1.05,2.82-2.26,3.53-3.13-.2-26.71-.4-53.43-.6-80.14,3.23.42,7.2,1.27,11.52,2.98,8.34,3.3,14.02,8.24,17.28,11.62-2.04,3.8-4.42,9.24-5.81,16.09-1.06,5.23-1.26,9.85-1.14,13.51.19,6.02,1.82,10.44,2.78,13.31,1.15,3.42,3.07,8.1,6.36,13.21-.93,1.69-1.85,3.38-2.78,5.06l.2,7.65c1.03-1.17,2.12-2.37,3.28-3.57,1.24-1.3,2.47-2.52,3.67-3.67,1.13.9,2.34,1.95,3.57,3.18,1.49,1.48,2.74,2.93,3.77,4.27l-.1-8.24c-1.19-1.59-2.38-3.18-3.58-4.77,1.96-3.07,4.24-7.31,6.01-12.66,1.8-5.44,2.48-10.28,2.73-13.95.21-3.96.04-9.99-2.14-16.88-1.64-5.2-3.91-9.26-5.81-12.11,1.45-2.4,5.11-7.73,12.07-11.42,7.22-3.84,13.94-3.76,16.73-3.58-.33,26.32-.66,52.63-.99,78.95.49.9,1.46,2.41,3.18,3.72,2.05,1.56,4.11,2.06,5.16,2.23-.13-30.72-.27-61.44-.4-92.15ZM37.44,63.85c-.91-2.72-2.55-7.75-2.68-14.5-.06-3.11-.1-6.92,1.39-11.62,1.49-4.69,3.81-8.08,5.46-10.13,1.77,2.03,4.4,5.54,6.16,10.53.15.42.52,1.5.88,3.07.19-.09.38-.18.55-.27.13.72.25,1.44.38,2.16-.14.07-.33.15-.51.23.34,2.02.58,4.51.48,7.32-.18,5.03-1.36,8.65-2.98,13.6-1.43,4.39-2.99,7.9-4.17,10.33"/>
    <path class="cls-1" d="M39.54,35.4c0,1.25,1.02,2.27,2.27,2.27s2.27-1.02,2.27-2.27-1.02-2.27-2.27-2.27-2.27,1.02-2.27,2.27Z"/>
    <path class="cls-1" d="M38.4,42.89c1.01.54,3.23,1.56,6.19,1.46,1.94-.06,3.46-.58,4.48-1.03-.13-.78-.28-1.49-.42-2.12-1.01.48-2.25.97-3.73,1.32-2.66.63-4.96.55-6.52.37Z"/>
    <path class="cls-1" d="M49.58,43.09c-.13-.72-.25-1.44-.38-2.16-.17.09-.37.18-.55.27.15.63.29,1.34.42,2.12.17-.08.37-.16.51-.23Z"/>
  </g>
  <path class="cls-1" d="M157.73,69.69l7.21,3.79c-2.37,4.64-5.1,8.39-8.2,11.24-3.1,2.85-6.59,5.02-10.46,6.51-3.87,1.49-8.26,2.23-13.15,2.23-10.85,0-19.33-3.55-25.44-10.66-6.12-7.11-9.17-15.14-9.17-24.11,0-8.43,2.59-15.95,7.77-22.55,6.56-8.39,15.35-12.59,26.36-12.59s20.39,4.3,27.16,12.89c4.81,6.07,7.26,13.65,7.34,22.73h-59.82c.16,7.72,2.63,14.05,7.4,18.99,4.77,4.94,10.67,7.41,17.68,7.41,3.38,0,6.68-.59,9.88-1.77,3.2-1.18,5.92-2.74,8.17-4.69,2.24-1.95,4.67-5.09,7.28-9.44ZM157.73,51.79c-1.14-4.56-2.8-8.21-4.99-10.94s-5.07-4.93-8.66-6.6c-3.59-1.67-7.36-2.5-11.32-2.5-6.53,0-12.14,2.1-16.83,6.29-3.43,3.05-6.02,7.64-7.77,13.75h49.56Z"/>
  <path class="cls-1" d="M179.85,25.27h8.74v9.72c2.61-3.83,5.36-6.69,8.25-8.59,2.89-1.89,5.91-2.84,9.04-2.84,2.36,0,4.89.75,7.58,2.26l-4.46,7.21c-1.79-.77-3.3-1.16-4.52-1.16-2.85,0-5.6,1.17-8.25,3.51-2.65,2.34-4.67,5.98-6.05,10.91-1.06,3.79-1.59,11.45-1.59,22.98v22.49h-8.74V25.27Z"/>
  <path class="cls-1" d="M285.26,39.08l-6.78,4.22c-5.86-7.78-13.85-11.67-23.99-11.67-8.1,0-14.82,2.6-20.17,7.81-5.35,5.21-8.03,11.54-8.03,18.98,0,4.84,1.23,9.4,3.69,13.67,2.46,4.27,5.84,7.59,10.13,9.95,4.29,2.36,9.1,3.54,14.43,3.54,9.77,0,17.74-3.89,23.93-11.67l6.78,4.46c-3.18,4.79-7.45,8.5-12.8,11.14-5.36,2.64-11.46,3.96-18.3,3.96-10.51,0-19.23-3.34-26.15-10.02-6.93-6.68-10.39-14.81-10.39-24.38,0-6.44,1.62-12.41,4.86-17.94,3.24-5.52,7.69-9.83,13.35-12.92,5.66-3.1,12-4.64,19-4.64,4.4,0,8.65.67,12.74,2.02,4.09,1.34,7.57,3.1,10.42,5.25,2.85,2.16,5.28,4.91,7.27,8.25Z"/>
  <path class="cls-1" d="M367.93,25.27v66.48h-8.43v-11.43c-3.59,4.36-7.61,7.64-12.07,9.84s-9.34,3.3-14.63,3.3c-9.41,0-17.45-3.41-24.11-10.23-6.66-6.82-9.99-15.12-9.99-24.9s3.36-17.76,10.08-24.56c6.72-6.8,14.81-10.21,24.26-10.21,5.46,0,10.4,1.16,14.82,3.48,4.42,2.32,8.3,5.81,11.64,10.45v-12.22h8.43ZM333.74,31.81c-4.76,0-9.16,1.17-13.18,3.51-4.03,2.34-7.23,5.63-9.61,9.86-2.38,4.23-3.57,8.71-3.57,13.43s1.2,9.16,3.6,13.43c2.4,4.27,5.63,7.6,9.67,9.98,4.05,2.38,8.39,3.57,13.03,3.57s9.11-1.18,13.31-3.54c4.19-2.36,7.42-5.55,9.67-9.58s3.39-8.56,3.39-13.61c0-7.69-2.53-14.12-7.6-19.29-5.07-5.17-11.3-7.75-18.71-7.75Z"/>
  <path class="cls-1" d="M385.96,1.07h8.42v90.68h-8.42V1.07Z"/>
  <path class="cls-1" d="M411.13,25.27h8.55v31.04c0,7.58.41,12.79,1.23,15.64,1.22,4.07,3.56,7.29,7.01,9.65,3.45,2.36,7.56,3.54,12.33,3.54s8.82-1.15,12.15-3.45c3.32-2.3,5.62-5.33,6.88-9.07.86-2.57,1.28-8,1.28-16.32v-31.04h8.74v32.63c0,9.17-1.07,16.07-3.21,20.72-2.14,4.64-5.36,8.28-9.65,10.91s-9.68,3.94-16.16,3.94-11.89-1.31-16.22-3.94c-4.34-2.63-7.58-6.29-9.72-11-2.14-4.7-3.21-11.78-3.21-21.23V25.27Z"/>
  <path class="cls-1" d="M482.87,25.27h48.82l-37.64,58.91h36.42v7.58h-51.15l37.61-58.97h-34.06v-7.52Z"/>
</svg>